<?xml version="1.0" encoding="utf-8"?>
<!-- Generator: Adobe Illustrator 21.1.0, SVG Export Plug-In . SVG Version: 6.00 Build 0)  -->
<svg version="1.1" id="Capa_1" xmlns="http://www.w3.org/2000/svg" xmlns:xlink="http://www.w3.org/1999/xlink" x="0px" y="0px"
	 viewBox="0 0 504.9 594" style="enable-background:new 0 0 504.9 594;" xml:space="preserve">
<style type="text/css">
	.st0{fill:url(#SVGID_1_);}
	.st1{fill:url(#SVGID_2_);}
	.st2{fill:url(#SVGID_3_);}
	.st3{fill:url(#SVGID_4_);}
	.st4{fill:url(#SVGID_5_);}
	.st5{fill:none;stroke:#000000;stroke-width:1.2865;stroke-miterlimit:10;}
	.st6{fill:url(#SVGID_6_);}
	.st7{fill:url(#SVGID_7_);}
	.st8{fill:url(#SVGID_8_);}
	.st9{fill:url(#SVGID_9_);}
	.st10{fill:url(#SVGID_10_);}
	.st11{fill:url(#SVGID_11_);}
	.st12{fill:url(#SVGID_12_);}
	.st13{fill:url(#SVGID_13_);}
	.st14{fill:#717071;}
</style>
<title>logo</title>
<g>
	<g>
		<g>
			<g>
				
					<linearGradient id="SVGID_1_" gradientUnits="userSpaceOnUse" x1="-38.0296" y1="604.0079" x2="7.1196" y2="604.0079" gradientTransform="matrix(1 0 0 1 135.2036 -379.1765)">
					<stop  offset="0" style="stop-color:#353386"/>
					<stop  offset="1" style="stop-color:#1EAA39"/>
				</linearGradient>
				<path class="st0" d="M118.8,251.8c0-28,8.7-54,23.6-75.4l0-0.1L101,217.6c-2.5,11-3.9,22.4-3.9,34.2c0,7.3,0.5,14.5,1.5,21.6
					l20.1-20.1l0.1-0.1C118.8,252.7,118.8,252.3,118.8,251.8z"/>
				
					<linearGradient id="SVGID_2_" gradientUnits="userSpaceOnUse" x1="-97.4286" y1="615.0806" x2="-68.2096" y2="615.0806" gradientTransform="matrix(1 0 0 1 135.2036 -379.1765)">
					<stop  offset="0" style="stop-color:#353386"/>
					<stop  offset="1" style="stop-color:#1EAA39"/>
				</linearGradient>
				<path class="st1" d="M59.4,251.8c0-18.6,2.7-36.5,7.6-53.5l0-0.1l-27.5,27.5c-1,8.6-1.6,17.2-1.7,26c0,7.4,0.4,14.7,1.1,21.9
					l20.5-20.5l0,0C59.4,252.6,59.4,252.2,59.4,251.8z"/>
				
					<linearGradient id="SVGID_3_" gradientUnits="userSpaceOnUse" x1="-135.2036" y1="515.9883" x2="138.1741" y2="515.9883" gradientTransform="matrix(1 0 0 1 135.2036 -379.1765)">
					<stop  offset="0" style="stop-color:#1EAA39"/>
					<stop  offset="1" style="stop-color:#353386"/>
				</linearGradient>
				<path class="st2" d="M273.4,0.9C266.2,0.3,259.1,0,251.8,0C112.9,0,0,112.9,0,251.8c0,7.3,0.3,14.5,0.9,21.6l38,0.2
					c-0.7-7.2-1.1-14.5-1.1-21.9c0-118,96-214,214-214c7.3,0,14.5,0.4,21.6,1.1L273.4,0.9z"/>
				
					<linearGradient id="SVGID_4_" gradientUnits="userSpaceOnUse" x1="-75.8302" y1="545.5555" x2="138.18" y2="545.5555" gradientTransform="matrix(1 0 0 1 135.2036 -379.1765)">
					<stop  offset="0" style="stop-color:#1EAA39"/>
					<stop  offset="1" style="stop-color:#353386"/>
				</linearGradient>
				<path class="st3" d="M273.4,60.6c-7.1-0.8-14.3-1.2-21.6-1.2c-106.1,0-192.4,86.3-192.4,192.4c0,7.3,0.4,14.5,1.2,21.6h38.1
					c-1-7.1-1.5-14.3-1.5-21.6c0-85.3,69.4-154.6,154.6-154.6c7.3,0,14.5,0.5,21.6,1.5V60.6z"/>
				
					<linearGradient id="SVGID_5_" gradientUnits="userSpaceOnUse" x1="-16.4396" y1="575.2516" x2="138.18" y2="575.2516" gradientTransform="matrix(1 0 0 1 135.2036 -379.1765)">
					<stop  offset="0" style="stop-color:#1EAA39"/>
					<stop  offset="1" style="stop-color:#353386"/>
				</linearGradient>
				<path class="st4" d="M273.4,120.5c-7-1.1-14.2-1.7-21.6-1.7c-73.3,0-133,59.7-133,133c0,7.1,0.6,14.1,1.6,20.9l38.6,0.7
					c-1.6-6.9-2.5-14.2-2.5-21.6c0-52.6,42.6-95.2,95.2-95.2c7.4,0,14.7,0.8,21.6,2.5L273.4,120.5z"/>
				<path class="st5" d="M60.6,273.4"/>
				<path class="st5" d="M120.4,272.7"/>
			</g>
			<g>
				
					<linearGradient id="SVGID_6_" gradientUnits="userSpaceOnUse" x1="226.0445" y1="658.0362" x2="271.1863" y2="658.0362" gradientTransform="matrix(1 0 0 1 135.2036 -379.1765)">
					<stop  offset="0" style="stop-color:#353386"/>
					<stop  offset="1" style="stop-color:#9C4C84"/>
				</linearGradient>
				<path class="st6" d="M384.8,251.9c0,28-8.7,54-23.6,75.4v0.1l41.3-41.3c2.5-11,3.8-22.5,3.8-34.2c0-7.3-0.5-14.5-1.5-21.6
					l-20.1,20.1l0,0.1C384.7,251,384.8,251.4,384.8,251.9z"/>
				
					<linearGradient id="SVGID_7_" gradientUnits="userSpaceOnUse" x1="301.3752" y1="646.9609" x2="330.57" y2="646.9609" gradientTransform="matrix(1 0 0 1 135.2036 -379.1765)">
					<stop  offset="0" style="stop-color:#353386"/>
					<stop  offset="1" style="stop-color:#9C4C84"/>
				</linearGradient>
				<path class="st7" d="M444.2,251.9c0,18.6-2.7,36.5-7.6,53.5l0,0.1l27.5-27.5c1-8.6,1.6-17.2,1.6-26.1c0-7.4-0.4-14.7-1.1-21.8
					l-20.5,20.5l0,0.1C444.1,251,444.2,251.5,444.2,251.9z"/>
				
					<linearGradient id="SVGID_8_" gradientUnits="userSpaceOnUse" x1="94.9826" y1="746.0513" x2="368.3603" y2="746.0513" gradientTransform="matrix(1 0 0 1 135.2036 -379.1765)">
					<stop  offset="0" style="stop-color:#353386"/>
					<stop  offset="1" style="stop-color:#9C4C84"/>
				</linearGradient>
				<path class="st8" d="M230.2,502.8c7.1,0.6,14.3,0.9,21.6,0.9c138.8,0,251.8-113,251.8-251.8c0-7.3-0.3-14.5-0.9-21.6l-38-0.2
					c0.7,7.2,1.1,14.5,1.1,21.8c0,118-96,214-214,214c-7.3,0-14.5-0.4-21.6-1.1V502.8z"/>
				
					<linearGradient id="SVGID_9_" gradientUnits="userSpaceOnUse" x1="94.9669" y1="716.4869" x2="308.9867" y2="716.4869" gradientTransform="matrix(1 0 0 1 135.2036 -379.1765)">
					<stop  offset="0" style="stop-color:#353386"/>
					<stop  offset="1" style="stop-color:#9C4C84"/>
				</linearGradient>
				<path class="st9" d="M230.2,443.1c7.1,0.8,14.3,1.2,21.6,1.2c106.1,0,192.4-86.3,192.4-192.4c0-7.3-0.4-14.5-1.2-21.6h-38.1
					c1,7.1,1.5,14.3,1.5,21.6c0,85.2-69.4,154.6-154.6,154.6c-7.3,0-14.5-0.5-21.6-1.5L230.2,443.1z"/>
				
					<linearGradient id="SVGID_10_" gradientUnits="userSpaceOnUse" x1="94.9669" y1="686.7954" x2="249.6037" y2="686.7954" gradientTransform="matrix(1 0 0 1 135.2036 -379.1765)">
					<stop  offset="0" style="stop-color:#353386"/>
					<stop  offset="1" style="stop-color:#9C4C84"/>
				</linearGradient>
				<path class="st10" d="M230.2,383.2c7,1.1,14.2,1.7,21.6,1.7c73.3,0,133-59.7,133-133c0-7.1-0.6-14.1-1.6-20.9l-38.6-0.7
					c1.6,6.9,2.5,14.2,2.4,21.6c0,52.6-42.6,95.2-95.2,95.2c-7.4,0-14.7-0.9-21.6-2.5L230.2,383.2z"/>
			</g>
		</g>
		<linearGradient id="SVGID_11_" gradientUnits="userSpaceOnUse" x1="60.8785" y1="309.225" x2="327.9092" y2="309.225">
			<stop  offset="0" style="stop-color:#1EAA39"/>
			<stop  offset="1" style="stop-color:#353386"/>
		</linearGradient>
		<path class="st11" d="M251.8,175.7c-42,0-76.1,34.1-76.1,76.1c0,14.2,3.9,27.4,10.7,38.7L60.9,416c8.2,9.6,17.2,18.5,26.7,26.7
			L213,317.3c11.4,6.7,24.6,10.7,38.7,10.7c42.1,0,76.1-34.1,76.1-76.1C327.9,209.8,293.8,175.7,251.8,175.7z M251.8,290.2
			c-21.1,0-38.3-17.2-38.3-38.3c0-21.1,17.2-38.3,38.3-38.3c21.1,0,38.3,17.2,38.3,38.3C290.1,273,272.9,290.2,251.8,290.2z"/>
	</g>
	<g>
		<linearGradient id="SVGID_12_" gradientUnits="userSpaceOnUse" x1="3.158" y1="557.0611" x2="50.8818" y2="557.0611">
			<stop  offset="0" style="stop-color:#1EAA39"/>
			<stop  offset="1" style="stop-color:#353386"/>
		</linearGradient>
		<path class="st12" d="M15.6,538.3v10.7c0,0.8,0.3,1.4,0.8,2c0.5,0.5,1.2,0.8,1.9,0.8h25.9c0.8,0,1.4,0.3,2,0.8
			c0.5,0.5,0.8,1.2,0.8,2v5.8c0,0.8-0.3,1.4-0.8,2c-0.5,0.5-1.2,0.8-2,0.8H18.3c-0.8,0-1.4,0.3-1.9,0.8c-0.5,0.5-0.8,1.2-0.8,1.9
			v9.8c0,0.8,0.3,1.4,0.8,2c0.5,0.5,1.2,0.8,1.9,0.8h29.8c0.8,0,1.4,0.3,1.9,0.8s0.8,1.2,0.8,1.9v5.7c0,0.8-0.3,1.4-0.8,2
			c-0.5,0.5-1.2,0.8-1.9,0.8H5.9c-0.8,0-1.4-0.3-1.9-0.8c-0.5-0.5-0.8-1.2-0.8-2v-59.4c0-0.8,0.3-1.4,0.8-2c0.5-0.5,1.2-0.8,1.9-0.8
			h42.2c0.8,0,1.4,0.3,1.9,0.8c0.5,0.5,0.8,1.2,0.8,2v5.5c0,0.8-0.3,1.4-0.8,2c-0.5,0.5-1.2,0.8-1.9,0.8H18.3
			c-0.8,0-1.4,0.3-1.9,0.8C15.8,536.9,15.6,537.6,15.6,538.3z"/>
		<linearGradient id="SVGID_13_" gradientUnits="userSpaceOnUse" x1="56.6224" y1="557.1351" x2="121.8823" y2="557.1351">
			<stop  offset="0" style="stop-color:#9C4C84"/>
			<stop  offset="1" style="stop-color:#353386"/>
		</linearGradient>
		<path class="st13" d="M121.9,526.1v60.7c0,0.8-0.3,1.4-0.8,2c-0.5,0.5-1.1,0.8-1.9,0.8h-7c-0.8,0-1.4-0.3-2-0.8
			c-0.5-0.5-0.8-1.2-0.8-2v-27.3c0-0.8-0.2-1.2-0.5-1.4c-0.3-0.1-0.7,0.1-1.2,0.8L91,579c-0.5,0.6-1.1,0.9-1.7,0.9
			c-0.7,0-1.3-0.3-1.7-0.9l-16.7-20.1c-0.5-0.6-0.9-0.8-1.2-0.7c-0.4,0.1-0.5,0.6-0.5,1.3v27.3c0,0.8-0.3,1.4-0.8,2
			c-0.5,0.5-1.2,0.8-1.9,0.8h-6.9c-0.8,0-1.4-0.3-1.9-0.8c-0.5-0.5-0.8-1.2-0.8-2v-60.7c0-0.8,0.4-1.2,1.1-1.3
			c0.7-0.1,1.3,0.1,1.8,0.7l28,34.6c0.5,0.5,1.1,0.8,1.8,0.8c0.7,0,1.3-0.3,1.8-0.8l28.1-34.6c0.5-0.6,1.1-0.8,1.8-0.7
			C121.5,524.9,121.9,525.3,121.9,526.1z"/>
		<g>
			<path class="st14" d="M152.9,544.3c2.6,0,5.2,0.9,7.7,2.6c2.5,1.7,4.5,4.3,5.9,7.5c1.4,3.3,2.1,6.7,2.1,10.3
				c0,3.5-0.7,6.9-2.1,10.1c-1.4,3.2-3.3,5.7-5.8,7.5c-2.5,1.8-5.1,2.7-7.8,2.7c-2.7,0-5.3-0.9-7.8-2.7c-2.5-1.8-4.4-4.3-5.8-7.5
				c-1.4-3.2-2.1-6.6-2.1-10.1c0-3.6,0.7-7,2.1-10.3c1.4-3.3,3.4-5.8,5.9-7.5C147.7,545.2,150.2,544.3,152.9,544.3z M148,553.5
				c-1.6,1.1-2.8,2.7-3.7,4.7c-0.9,2.1-1.3,4.2-1.3,6.5c0,2.2,0.4,4.3,1.3,6.4c0.9,2,2.1,3.6,3.7,4.8c1.6,1.1,3.2,1.7,4.9,1.7
				c1.7,0,3.4-0.6,4.9-1.7c1.6-1.1,2.8-2.7,3.7-4.8c0.9-2,1.3-4.2,1.3-6.4c0-2.3-0.4-4.4-1.3-6.5c-0.9-2.1-2.1-3.6-3.7-4.7
				c-1.6-1.1-3.2-1.7-4.9-1.7C151.2,551.9,149.6,552.4,148,553.5z"/>
			<path class="st14" d="M177.5,556c0.2-0.1,0.3-0.3,0.5-0.4c1.9-1.4,3.9-2,6-2c2,0,4,0.7,6,2c1.9,1.3,3.5,3.3,4.6,5.8
				c1.1,2.5,1.6,5.2,1.6,8c0,2.7-0.5,5.3-1.6,7.8c-1.1,2.5-2.6,4.4-4.5,5.8c-1.9,1.4-4,2.1-6.1,2.1c-2.1,0-4.1-0.7-6.1-2.1
				c-0.1-0.1-0.3-0.2-0.4-0.3V594h-5.7v-40h5.7V556z M180.4,562.1c-1,0.7-1.8,1.8-2.4,3.1c-0.6,1.4-0.9,2.8-0.9,4.3
				c0,1.4,0.3,2.8,0.8,4.2c0.6,1.3,1.4,2.4,2.4,3.1c1,0.8,2.1,1.1,3.2,1.1c1.1,0,2.2-0.4,3.2-1.1c1-0.7,1.8-1.8,2.4-3.1
				c0.6-1.3,0.9-2.7,0.9-4.2c0-1.5-0.3-2.9-0.9-4.3c-0.6-1.4-1.4-2.4-2.4-3.1c-1-0.7-2.1-1.1-3.2-1.1
				C182.5,561,181.4,561.4,180.4,562.1z"/>
			<path class="st14" d="M199.2,561.4H197V554h2.2v-9.3h5.7v9.3h7.1v7.4h-7.1v9.8c0,1.1,0.2,2.1,0.6,3.1c0.4,1,1,1.8,1.8,2.3
				c0.7,0.5,1.5,0.8,2.3,0.8c0.8,0,1.6-0.3,2.3-0.8c0.6-0.4,1-0.9,1.4-1.6l4.1,5.3c-0.8,1.1-1.7,2-2.7,2.8c-1.7,1.2-3.4,1.8-5.1,1.8
				c-1.8,0-3.5-0.6-5.1-1.7c-1.7-1.2-3-2.8-3.9-5c-0.9-2.2-1.4-4.5-1.4-6.8V561.4z"/>
			<path class="st14" d="M225.4,540.7c0.6,0.4,1.1,1.1,1.5,1.9c0.4,0.8,0.5,1.7,0.5,2.6c0,0.9-0.2,1.7-0.5,2.6
				c-0.4,0.8-0.8,1.5-1.5,1.9c-0.6,0.5-1.3,0.7-2,0.7c-0.7,0-1.4-0.2-2-0.7c-0.6-0.5-1.1-1.1-1.5-1.9c-0.3-0.8-0.5-1.7-0.5-2.6
				c0-0.9,0.2-1.8,0.5-2.6c0.4-0.8,0.9-1.5,1.5-1.9c0.6-0.4,1.3-0.7,2-0.7C224.1,540,224.8,540.2,225.4,540.7z M220.6,584.8V554h5.7
				v30.8H220.6z"/>
			<path class="st14" d="M235.3,567.2v17.6h-5.7V554h5.7v1.1c1.5-1,3.1-1.5,4.7-1.5c1.8,0,3.5,0.6,5.1,1.7c0.9,0.7,1.7,1.5,2.5,2.4
				c0.7-1,1.5-1.8,2.5-2.4c1.7-1.2,3.4-1.7,5.1-1.7c1.8,0,3.5,0.6,5.1,1.7c1.7,1.2,3,2.8,3.9,5c0.9,2,1.3,4.1,1.4,6.2v18.2h-5.7
				v-17.6c0-1.1-0.2-2.1-0.6-3.1c-0.4-1-1-1.8-1.8-2.3c-0.8-0.5-1.5-0.8-2.3-0.8c-0.8,0-1.6,0.3-2.3,0.8c-0.7,0.5-1.3,1.3-1.8,2.3
				c-0.4,1-0.6,2-0.6,3.1v17.6h-5.7v-17.6c0-1.1-0.2-2.1-0.6-3.1c-0.4-1-1-1.8-1.8-2.3c-0.8-0.5-1.5-0.8-2.3-0.8
				c-0.8,0-1.6,0.3-2.3,0.8c-0.7,0.5-1.3,1.3-1.8,2.3C235.5,565.1,235.3,566.1,235.3,567.2z"/>
			<path class="st14" d="M273.5,540.7c0.6,0.4,1.1,1.1,1.5,1.9c0.4,0.8,0.5,1.7,0.5,2.6c0,0.9-0.2,1.7-0.5,2.6
				c-0.4,0.8-0.8,1.5-1.5,1.9c-0.6,0.5-1.3,0.7-2,0.7c-0.7,0-1.4-0.2-2-0.7c-0.6-0.5-1.1-1.1-1.5-1.9c-0.3-0.8-0.5-1.7-0.5-2.6
				c0-0.9,0.2-1.8,0.5-2.6c0.4-0.8,0.9-1.5,1.5-1.9c0.6-0.4,1.3-0.7,2-0.7C272.3,540,272.9,540.2,273.5,540.7z M268.8,584.8V554h5.7
				v30.8H268.8z"/>
			<path class="st14" d="M288.6,561.4h-10.9V554h20.9l-10.8,23.4h10.8v7.4h-20.8l1.5-3L288.6,561.4z"/>
			<path class="st14" d="M326.1,584.8h-5.7v-2c-0.1,0.1-0.3,0.2-0.4,0.3c-1.9,1.4-4,2.1-6.1,2.1c-2.1,0-4.1-0.7-6.1-2.1
				c-1.9-1.4-3.4-3.3-4.5-5.8c-1.1-2.5-1.6-5.1-1.6-7.8c0-2.8,0.5-5.4,1.6-8c1.1-2.5,2.6-4.5,4.5-5.8c1.9-1.4,3.9-2,6-2
				c2,0,4,0.7,6,2c0.2,0.1,0.3,0.3,0.5,0.4v-2h5.7V584.8z M311.2,562.1c-1,0.7-1.8,1.8-2.4,3.1c-0.6,1.4-0.9,2.8-0.9,4.3
				c0,1.4,0.3,2.8,0.8,4.2c0.6,1.3,1.4,2.4,2.4,3.1c1,0.8,2.1,1.1,3.2,1.1c1.1,0,2.2-0.4,3.2-1.1c1-0.7,1.8-1.8,2.4-3.1
				c0.6-1.3,0.9-2.7,0.9-4.2c0-1.5-0.3-2.9-0.9-4.3c-0.6-1.4-1.4-2.4-2.4-3.1c-1-0.7-2.1-1.1-3.2-1.1
				C313.3,561,312.2,561.4,311.2,562.1z"/>
			<path class="st14" d="M331.4,561.4h-2.2V554h2.2v-9.3h5.7v9.3h7.1v7.4h-7.1v9.8c0,1.1,0.2,2.1,0.6,3.1c0.4,1,1,1.8,1.8,2.3
				c0.8,0.5,1.5,0.8,2.3,0.8c0.8,0,1.6-0.3,2.3-0.8c0.6-0.4,1-0.9,1.4-1.6l4.1,5.3c-0.8,1.1-1.7,2-2.7,2.8c-1.7,1.2-3.4,1.8-5.1,1.8
				c-1.8,0-3.5-0.6-5.1-1.7c-1.7-1.2-3-2.8-3.9-5c-0.9-2.2-1.4-4.5-1.4-6.8V561.4z"/>
			<path class="st14" d="M357.5,540.7c0.6,0.4,1.1,1.1,1.5,1.9c0.4,0.8,0.5,1.7,0.5,2.6c0,0.9-0.2,1.7-0.5,2.6
				c-0.3,0.8-0.8,1.5-1.5,1.9c-0.6,0.5-1.3,0.7-2,0.7c-0.7,0-1.4-0.2-2-0.7c-0.6-0.5-1.1-1.1-1.5-1.9c-0.4-0.8-0.5-1.7-0.5-2.6
				c0-0.9,0.2-1.8,0.5-2.6c0.4-0.8,0.9-1.5,1.5-1.9c0.6-0.4,1.3-0.7,2-0.7C356.2,540,356.9,540.2,357.5,540.7z M352.8,584.8V554h5.7
				v30.8H352.8z"/>
			<path class="st14" d="M373.9,553.6c2,0,4,0.7,6,2c1.9,1.3,3.5,3.3,4.6,5.8c1.1,2.5,1.6,5.2,1.6,8c0,2.7-0.5,5.3-1.6,7.8
				c-1.1,2.5-2.6,4.4-4.5,5.8c-1.9,1.4-4,2.1-6.1,2.1c-2.1,0-4.1-0.7-6.1-2.1c-1.9-1.4-3.4-3.3-4.5-5.8c-1.1-2.5-1.6-5.1-1.6-7.8
				c0-2.8,0.5-5.4,1.6-8c1.1-2.5,2.6-4.5,4.5-5.8C369.8,554.2,371.8,553.6,373.9,553.6z M370.7,562.1c-1,0.7-1.8,1.8-2.4,3.1
				c-0.6,1.4-0.9,2.8-0.9,4.3c0,1.4,0.3,2.8,0.8,4.2c0.6,1.3,1.4,2.4,2.4,3.1c1,0.8,2.1,1.1,3.2,1.1c1.1,0,2.2-0.4,3.2-1.1
				c1-0.7,1.8-1.8,2.4-3.1c0.6-1.3,0.9-2.7,0.9-4.2c0-1.5-0.3-2.9-0.9-4.3c-0.6-1.4-1.4-2.4-2.4-3.1c-1-0.7-2.1-1.1-3.2-1.1
				C372.8,561,371.7,561.4,370.7,562.1z"/>
			<path class="st14" d="M395,567.2v17.6h-5.7V554h5.7v1.1c1.5-1,3.1-1.5,4.7-1.5c1.7,0,3.5,0.6,5.1,1.7c1.7,1.2,3,2.8,3.9,5
				c0.9,2,1.3,4.1,1.4,6.2v18.2h-5.7v-17.6c0-1.1-0.2-2.1-0.6-3.1c-0.4-1-1-1.8-1.8-2.3c-0.8-0.5-1.5-0.8-2.3-0.8
				c-0.8,0-1.6,0.3-2.3,0.8c-0.7,0.5-1.3,1.3-1.8,2.3C395.2,565.1,395,566.1,395,567.2z"/>
			<path class="st14" d="M429.3,544.7h5.7v32.6h13.7v7.4h-19.4V544.7z"/>
			<path class="st14" d="M476.1,584.8h-5.7v-2c-0.1,0.1-0.3,0.2-0.4,0.3c-1.9,1.4-4,2.1-6.1,2.1c-2.1,0-4.1-0.7-6.1-2.1
				c-1.9-1.4-3.4-3.3-4.5-5.8c-1.1-2.5-1.6-5.1-1.6-7.8c0-2.8,0.5-5.4,1.6-8c1.1-2.5,2.6-4.5,4.5-5.8c1.9-1.4,3.9-2,6-2
				c2,0,4,0.7,6,2c0.2,0.1,0.3,0.3,0.5,0.4v-2h5.7V584.8z M461.2,562.1c-1,0.7-1.8,1.8-2.4,3.1c-0.6,1.4-0.9,2.8-0.9,4.3
				c0,1.4,0.3,2.8,0.8,4.2c0.6,1.3,1.4,2.4,2.4,3.1c1,0.8,2.1,1.1,3.2,1.1c1.1,0,2.2-0.4,3.2-1.1c1-0.7,1.8-1.8,2.4-3.1
				s0.9-2.7,0.9-4.2c0-1.5-0.3-2.9-0.9-4.3c-0.6-1.4-1.4-2.4-2.4-3.1c-1-0.7-2.1-1.1-3.2-1.1C463.3,561,462.3,561.4,461.2,562.1z"/>
			<path class="st14" d="M485,556c0.2-0.1,0.3-0.3,0.5-0.4c1.9-1.4,3.9-2,6-2c2,0,4,0.7,6,2c1.9,1.3,3.5,3.3,4.6,5.8
				c1.1,2.5,1.6,5.2,1.6,8c0,2.7-0.5,5.3-1.6,7.8c-1.1,2.5-2.6,4.4-4.5,5.8c-1.9,1.4-3.9,2.1-6.1,2.1c-2.1,0-4.1-0.7-6.1-2.1
				c-0.1-0.1-0.3-0.2-0.4-0.3v2h-5.7v-40h5.7V556z M487.9,562.1c-1,0.7-1.8,1.8-2.4,3.1c-0.6,1.4-0.9,2.8-0.9,4.3
				c0,1.4,0.3,2.8,0.8,4.2c0.6,1.3,1.4,2.4,2.4,3.1c1,0.8,2.1,1.1,3.2,1.1c1.1,0,2.2-0.4,3.2-1.1c1-0.7,1.8-1.8,2.4-3.1
				c0.6-1.3,0.9-2.7,0.9-4.2c0-1.5-0.3-2.9-0.9-4.3c-0.6-1.4-1.4-2.4-2.4-3.1c-1-0.7-2.1-1.1-3.2-1.1
				C490,561,488.9,561.4,487.9,562.1z"/>
		</g>
	</g>
</g>
</svg>
