<?xml version="1.0" encoding="utf-8"?>
<!-- Generator: Adobe Illustrator 21.1.0, SVG Export Plug-In . SVG Version: 6.00 Build 0)  -->
<svg version="1.1" xmlns="http://www.w3.org/2000/svg" xmlns:xlink="http://www.w3.org/1999/xlink" x="0px" y="0px"
	 viewBox="0 0 425.4 250.3" style="enable-background:new 0 0 425.4 250.3;" xml:space="preserve">
<style type="text/css">
	.st0{fill:#FFFFFF;}
	.st1{fill:#2A3990;}
	.st2{fill:#00A650;}
</style>
<g id="圖層_2">
</g>
<g id="Layer_1">
	<polygon class="st0" points="213.2,182.8 253.7,182.8 253.7,199.3 242.3,199.3 242.3,250 225.3,250 225.4,199.3 213.2,199.3 	"/>
	<polygon class="st0" points="263.4,182.7 297.7,182.7 297.7,197 276.3,197 276.3,207.6 296.1,207.6 296.1,221.3 276.3,221.3 
		276.3,234.6 298.4,234.6 298.4,249.8 263.4,249.8 	"/>
	<polygon class="st0" points="368.2,182.7 368.2,249.8 384.5,249.8 384.5,221.3 410,221.3 410,249.8 425.2,249.8 425.2,182.7 
		410,182.7 410,208 384.5,208 384.5,182.7 	"/>
	<path class="st0" d="M341.6,234.6c-23.2-0.9-21.8-36.9,1.4-36c7.5,0.3,12.5,4.3,14.9,9.4l0-20.2c-4.8-3-10.5-4.8-16.7-5
		c-18.6-0.7-34.4,13.8-35.2,32.4c-0.7,18.6,13.9,34.3,32.6,35.1c7,0.3,13.6-1.6,19.3-4.9l0-20.3
		C355.2,230.8,349.7,234.9,341.6,234.6"/>
	<path class="st1" d="M152.4,74c0,0,48.8-34.7,108.1-60.6c2.4-1,4.8-2.1,7.2-3.1c9-3.2,18.1-6.8,26.9-8.2c1.8-0.3,3.6-0.6,5.6-0.9
		c9-1.3,19.2-2,25-0.2c0.7,0.2,1.4,0.5,2,0.8c3.2,1.6,3.2,4.4,2.9,7c-0.1,0.7-0.4,1.5-0.8,2.5c-2.4,5.8-10.7,17.2-36.9,37.5
		L270,49.3c0,0,33-25.6,19.8-29.7c0,0-14.8-5.9-70.1,20.3L152.4,74z"/>
	<polygon class="st0" points="93.1,79.7 148.8,79.7 148.8,98.7 130,98.7 130,156.3 111.7,156.3 111.7,98.7 93.1,98.7 	"/>
	<rect x="238.1" y="79.7" class="st0" width="21.6" height="76.6"/>
	<rect x="403.5" y="79.7" class="st0" width="21.6" height="76.6"/>
	<path class="st0" d="M295.4,112.4h5.4c4,0,7-0.8,8.8-2.3c1.6-1.6,2.4-3.6,2.4-6.1c0-2.4-0.7-4.4-2.1-6.1c-1.5-1.7-4.2-2.5-8.2-2.5
		h-6.2L295.4,112.4L295.4,112.4z M273.8,79.7h35.9c7.8,0,13.8,2.1,17.5,6.1c4.1,4.1,5.9,9.9,5.9,17.4c0,7.7-2.1,13.8-6.3,18.2
		c-4.2,4.3-10.8,6.5-19.4,6.5h-11.9v28.4h-21.6L273.8,79.7L273.8,79.7z"/>
	<polygon class="st0" points="344.2,79.7 388.6,79.7 388.6,96.1 360.8,96.1 360.8,108.3 386.5,108.3 386.5,123.9 360.8,123.9 
		360.8,139.1 389.4,139.1 389.4,156.3 344.2,156.3 	"/>
	<path class="st0" d="M180.7,127.2l7.6-27.6l7.8,27.6H180.7 M200.3,79.7h-23.4l-26.4,76.6h22.2l3.4-12.6h21.7
		c10.4-5.9,17.1-10.5,20.3-12.5L200.3,79.7z M226.7,156.3l-8.5-24.6l-17.5,12.7l3.3,11.9H226.7z"/>
	<path class="st2" d="M79.6,157.6c4.3-3.6,8.3-5.9,11.2-5.9l-21.4-4.2c0,0-5.4,4-13.1,10.1H79.6z M181.2,156h9.4l27.6-24.3
		C218.2,131.8,205.7,140.6,181.2,156 M175.3,160.6c-0.3,0-0.5-0.1-0.9-0.1c-3.5,2.3-7.1,4.5-10.9,6.9h15.2c1.6-1.5,3.3-2.8,4.8-4.2
		l2.9-2.6H175.3z M155.9,171.9c-4.3,2.6-8.8,5.1-13.3,7.5h20.7c3.4-2.5,6.6-5,9.9-7.5H155.9z M135.1,184c-0.2,0-0.5-0.1-0.6-0.2
		c-5,2.6-9.9,5.1-14.8,7.4h26c3.7-2.2,7.4-4.6,11.2-7.2H135.1z M113,195.6c-0.2,0-0.5,0-0.7-0.2h-2.4c-5.2,2.3-10.5,4.3-15.5,5.8
		h34.3c3.2-1.7,6.4-3.5,9.7-5.6H113z M77.7,205.7c0,0-0.2,0-0.2-0.1c-2.5,0.6-4.9,1-7.4,1.2c0,0-14,3.3-20.7-0.3H6.8
		c-1.1,1.6-2.2,3.3-3.1,5h104.7c3.7-1.8,7.7-3.7,11.7-5.7L77.7,205.7L77.7,205.7z M1.6,215.9c-0.8,1.7-1.2,3.3-1.5,4.8h86.2
		c3.4-1.2,7.6-2.9,12-4.8H1.6z M0,225.2c0.2,0.9,0.4,1.8,0.8,2.6c0,0,5.2,11.6,70.2-1.9c0,0,0.8-0.2,2.4-0.8H0z M46,201.9
		c-0.3-1.5-0.1-3.5,0.9-5.9H15c-1.8,1.9-3.4,3.9-5,5.9H46z M49.1,191.4c0.2-0.3,0.2-0.5,0.4-0.7c0,0,2.1-2.8,5.4-6.8H26.5
		c-2.5,2.4-5,5-7.4,7.5H49.1z M58.6,179.4c1.6-1.8,3.2-3.7,4.8-5.6H38.4c-0.3,0-0.7-0.2-1-0.3c-2.1,1.9-4.2,3.8-6.3,5.9H58.6z
		 M67.5,169.3c2.3-2.4,4.7-5,7.1-7.2H51.4c-0.2,0-0.3,0-0.4,0c-2.8,2.3-5.6,4.6-8.6,7.3L67.5,169.3L67.5,169.3z"/>
</g>
</svg>
