<?xml version="1.0" encoding="utf-8"?>
<!-- Generator: Adobe Illustrator 21.1.0, SVG Export Plug-In . SVG Version: 6.00 Build 0)  -->
<svg version="1.1" id="Capa_1" xmlns="http://www.w3.org/2000/svg" xmlns:xlink="http://www.w3.org/1999/xlink" x="0px" y="0px"
	 viewBox="0 0 329.4 612" style="enable-background:new 0 0 329.4 612;" xml:space="preserve">
<style type="text/css">
	.st0{fill:#C2E812;}
</style>
<g>
	<g id="Wi-Fi">
		<g>
			<path class="st0" d="M139.9,6.6C51,81.3,0,190.4,0,306s51,224.7,139.9,299.4c11.8,9.9,29.4,8.4,39.4-3.4
				c4.4-5.2,6.6-11.6,6.6-17.9c0-8-3.4-15.9-10-21.4C99.6,498.6,55.9,405,55.9,306s43.7-192.6,120-256.7c6.6-5.5,10-13.5,10-21.4
				c0-6.4-2.1-12.7-6.6-18C169.4-1.8,151.7-3.4,139.9,6.6z M111.8,306c0,82.5,36.4,160.5,99.9,213.9c11.8,9.9,29.4,8.4,39.4-3.4
				c4.4-5.2,6.6-11.6,6.6-18c0-8-3.4-15.9-10-21.4c-50.8-42.7-80-105.1-80-171.1s29.2-128.4,80-171.1c6.6-5.5,10-13.5,10-21.4
				c0-6.4-2.1-12.7-6.6-18c-9.9-11.8-27.6-13.4-39.4-3.4C148.2,145.5,111.8,223.4,111.8,306z M223.5,306
				c0,49.6,21.9,96.3,59.9,128.3c11.8,9.9,29.4,8.4,39.4-3.4c4.4-5.2,6.6-11.6,6.6-18c0-8-3.4-15.9-10-21.4
				c-25.4-21.4-40-52.6-40-85.5s14.6-64.2,40-85.5c6.6-5.5,10-13.5,10-21.4c0-6.4-2.1-12.7-6.6-18c-9.9-11.8-27.6-13.4-39.4-3.4
				C245.4,209.7,223.5,256.4,223.5,306z"/>
		</g>
	</g>
</g>
</svg>
